<svg width="640" height="320" viewBox="0 0 640 320" fill="none" xmlns="http://www.w3.org/2000/svg">
<path d="M480.07 1.63247e-06H160C133.619 -0.00376641 107.647 6.51555 84.395 18.9775C61.1432 31.4395 41.3335 49.4575 26.7297 71.4274C12.1258 93.3972 3.18089 118.637 0.691249 144.9C-1.79839 171.163 2.24451 197.635 12.46 221.957C22.6755 246.28 38.7466 267.699 59.2426 284.308C79.7386 300.917 104.023 312.201 129.935 317.154C155.847 322.108 182.581 320.577 207.758 312.699C232.935 304.821 255.773 290.84 274.24 272H365.76C384.225 290.838 407.06 304.818 432.234 312.696C457.407 320.575 484.139 322.108 510.048 317.158C535.957 312.208 560.241 300.929 580.737 284.325C601.233 267.721 617.307 246.307 627.526 221.989C637.746 197.672 641.795 171.205 639.313 144.944C636.831 118.683 627.894 93.4433 613.299 71.4711C598.704 49.4989 578.903 31.476 555.659 19.0065C532.415 6.53699 506.448 0.00777518 480.07 1.63247e-06V1.63247e-06ZM248 172C248 175.183 246.736 178.235 244.485 180.485C242.235 182.736 239.183 184 236 184H184V236C184 239.183 182.736 242.235 180.485 244.485C178.235 246.736 175.183 248 172 248H148C144.817 248 141.765 246.736 139.515 244.485C137.264 242.235 136 239.183 136 236V184H84C80.8174 184 77.7652 182.736 75.5147 180.485C73.2643 178.235 72 175.183 72 172V148C72 144.817 73.2643 141.765 75.5147 139.515C77.7652 137.264 80.8174 136 84 136H136V84C136 80.8174 137.264 77.7652 139.515 75.5147C141.765 73.2643 144.817 72 148 72H172C175.183 72 178.235 73.2643 180.485 75.5147C182.736 77.7652 184 80.8174 184 84V136H236C239.183 136 242.235 137.264 244.485 139.515C246.736 141.765 248 144.817 248 148V172ZM464 248C456.089 248 448.355 245.654 441.777 241.259C435.199 236.864 430.072 230.616 427.045 223.307C424.017 215.998 423.225 207.956 424.769 200.196C426.312 192.437 430.122 185.31 435.716 179.716C441.31 174.122 448.437 170.312 456.196 168.769C463.956 167.225 471.998 168.017 479.307 171.045C486.616 174.072 492.864 179.199 497.259 185.777C501.654 192.355 504 200.089 504 208C504 218.609 499.786 228.783 492.284 236.284C484.783 243.786 474.609 248 464 248V248ZM528 152C520.089 152 512.355 149.654 505.777 145.259C499.199 140.864 494.072 134.616 491.045 127.307C488.017 119.998 487.225 111.956 488.769 104.196C490.312 96.4371 494.122 89.3098 499.716 83.7157C505.31 78.1216 512.437 74.312 520.196 72.7686C527.956 71.2252 535.998 72.0173 543.307 75.0448C550.616 78.0723 556.864 83.1992 561.259 89.7772C565.654 96.3552 568 104.089 568 112C568 122.609 563.786 132.783 556.284 140.284C548.783 147.786 538.609 152 528 152Z" fill="#EC7C32"/>
</svg>
