<svg width="512" height="512" viewBox="0 0 512 512" fill="none" xmlns="http://www.w3.org/2000/svg">
<path d="M192 208C192 190.33 177.67 176 160 176H144C108.65 176 80 204.65 80 240V288C80 323.35 108.65 352 144 352H160C177.67 352 192 337.67 192 320V208ZM368 352C403.35 352 432 323.35 432 288V240C432 204.65 403.35 176 368 176H352C334.33 176 320 190.33 320 208V320C320 337.67 334.33 352 352 352H368ZM256 0C113.18 0 4.58 118.83 0 256V272C0 280.84 7.16 288 16 288H32C40.84 288 48 280.84 48 272V256C48 141.31 141.31 48 256 48C370.69 48 464 141.31 464 256H463.88C463.96 258.43 464 421.72 464 421.72C464 445.07 445.07 464 421.72 464H320C320 437.49 298.51 416 272 416H240C213.49 416 192 437.49 192 464C192 490.51 213.49 512 240 512H421.72C471.58 512 512 471.58 512 421.72V256C507.42 118.83 398.82 0 256 0Z" fill="#EC7C32"/>
</svg>
