<svg width="384" height="480" viewBox="0 0 384 480" fill="none" xmlns="http://www.w3.org/2000/svg">
<path d="M19.0001 240.47L59.6301 258.53C63.5356 260.266 67.7493 261.202 72.0225 261.283C76.2957 261.363 80.5417 260.587 84.5101 259L97.2901 253.88C101.757 252.093 105.763 249.322 109.011 245.773C112.259 242.223 114.665 237.987 116.05 233.38L125.27 202.73C126.109 199.37 127.665 196.232 129.832 193.531C131.998 190.829 134.723 188.629 137.82 187.08L159.94 176V226.33C159.942 235.245 157.461 243.984 152.775 251.569C148.089 259.153 141.384 265.282 133.41 269.27L76.1901 297.92C62.9069 304.569 51.7373 314.785 43.9325 327.424C36.1277 340.063 31.9959 354.626 32.0001 369.48V384H351.86V192C351.86 86 265.94 0 159.94 0H12.0001C8.81747 0 5.76523 1.26428 3.51479 3.51472C1.26435 5.76515 7.21671e-05 8.8174 7.21671e-05 12C-0.00155597 14.6316 0.611386 17.2272 1.79007 19.58L16.0001 48L7.00007 57C4.77328 59.2345 3.00885 61.8861 1.80773 64.8032C0.606599 67.7202 -0.00766369 70.8454 7.21671e-05 74V211.21C-0.00372357 217.403 1.78938 223.463 5.16191 228.657C8.53444 233.851 13.3415 237.954 19.0001 240.47V240.47ZM52.0001 96C55.9557 96 59.8225 97.173 63.1115 99.3706C66.4005 101.568 68.9639 104.692 70.4777 108.346C71.9914 112.001 72.3875 116.022 71.6158 119.902C70.8441 123.781 68.9393 127.345 66.1422 130.142C63.3452 132.939 59.7815 134.844 55.9019 135.616C52.0223 136.387 48.0009 135.991 44.3464 134.478C40.6919 132.964 37.5683 130.4 35.3707 127.111C33.1731 123.822 32.0001 119.956 32.0001 116C32.0001 110.696 34.1072 105.609 37.8579 101.858C41.6087 98.1071 46.6957 96 52.0001 96V96ZM368 416H16.0001C11.7566 416 7.68695 417.686 4.68636 420.686C1.68578 423.687 7.21671e-05 427.757 7.21671e-05 432V464C7.21671e-05 468.243 1.68578 472.313 4.68636 475.314C7.68695 478.314 11.7566 480 16.0001 480H368C372.244 480 376.313 478.314 379.314 475.314C382.314 472.313 384 468.243 384 464V432C384 427.757 382.314 423.687 379.314 420.686C376.313 417.686 372.244 416 368 416Z" fill="#EC7C32"/>
</svg>
